<svg width="20" height="20" viewBox="0 0 20 20" fill="none" xmlns="http://www.w3.org/2000/svg">
<path d="M12.255 10L18.783 3.47251C18.9311 3.32445 19.0485 3.14867 19.1287 2.95521C19.2088 2.76176 19.2501 2.55441 19.2501 2.34501C19.2501 2.13562 19.2088 1.92827 19.1287 1.73482C19.0485 1.54136 18.9311 1.36558 18.783 1.21751C18.635 1.06945 18.4592 0.951997 18.2657 0.871864C18.0723 0.791732 17.8649 0.750488 17.6555 0.750488C17.4461 0.750488 17.2388 0.791732 17.0453 0.871864C16.8519 0.951997 16.6761 1.06945 16.528 1.21751L10 7.74501L3.47253 1.21751C3.17349 0.918482 2.76792 0.750488 2.34503 0.750488C1.92213 0.750488 1.51656 0.918482 1.21753 1.21751C0.918494 1.51655 0.7505 1.92212 0.7505 2.34501C0.7505 2.76791 0.918494 3.17348 1.21753 3.47251L7.74503 10L1.21703 16.5275C1.06896 16.6756 0.951508 16.8514 0.871376 17.0448C0.791244 17.2383 0.75 17.4456 0.75 17.655C0.75 17.8644 0.791244 18.0718 0.871376 18.2652C0.951508 18.4587 1.06896 18.6344 1.21703 18.7825C1.36509 18.9306 1.54087 19.048 1.73433 19.1282C1.92778 19.2083 2.13513 19.2495 2.34453 19.2495C2.55392 19.2495 2.76127 19.2083 2.95472 19.1282C3.14818 19.048 3.32396 18.9306 3.47203 18.7825L10 12.256L16.5275 18.7835C16.839 19.095 17.2475 19.2505 17.655 19.2505C18.0625 19.2505 18.4715 19.095 18.783 18.7835C19.0819 18.4844 19.2499 18.0789 19.2499 17.656C19.2499 17.2332 19.0819 16.8276 18.783 16.5285L12.255 10Z" stroke="white" stroke-width="1.5" stroke-linecap="round" stroke-linejoin="round"/>
</svg>
